 http://www.imdb.com/title/tt0045555/

Source: The.Big.Heat.1953.720p.BluRay.X264-AMIABLE Thanks!

Subs: Brazilian, Croatian, Czech, Danish, English, French, Portuguese and Spanish

Sample and Screens included.

General
Complete name                            : The Big Heat-720p MP4 AAC x264 BRRip 1953-CC.mp4
Format                                   : MPEG-4
Format profile                           : Base Media
Codec ID                                 : isom
File size                                : 2.61 GiB
Duration                                 : 1h 29mn
Overall bit rate mode                    : Variable
Overall bit rate                         : 4 172 Kbps
Encoded date                             : UTC 2013-01-14 19:47:43

Video
ID                                       : 1
Format                                   : AVC
Format/Info                              : Advanced Video Codec
Format profile                           : High@L4.1
Format settings, CABAC                   : Yes
Format settings, ReFrames                : 5 frames
Codec ID                                 : avc1
Codec ID/Info                            : Advanced Video Coding
Duration                                 : 1h 29mn
Bit rate                                 : 4 016 Kbps
Maximum bit rate                         : 18.0 Mbps
Width                                    : 960 pixels
Height                                   : 720 pixels
Display aspect ratio                     : 4:3
Frame rate mode                          : Variable
Frame rate                               : 23.976 fps
Minimum frame rate                       : 23.256 fps
Maximum frame rate                       : 25.000 fps
Color space                              : YUV
Chroma subsampling                       : 4:2:0
Bit depth                                : 8 bits
Scan type                                : Progressive
Bits/(Pixel*Frame)                       : 0.242
Stream size                              : 2.51 GiB (96%)
Writing library                          : x264 core 112

Audio
ID                                       : 2
Format                                   : AAC
Format/Info                              : Advanced Audio Codec
Format profile                           : LC
Codec ID                                 : 40
Duration                                 : 1h 29mn
Bit rate mode                            : Variable
Bit rate                                 : 159 Kbps
Maximum bit rate                         : 212 Kbps
Channel(s)                               : 1 channel
Channel positions                        : Front: C
Sampling rate                            : 48.0 KHz
Compression mode                         : Lossy
Delay relative to video                  : 83ms
Stream size                              : 102 MiB (4%)
Language                                 : English

Enjoy...

Requested by mrmuvis

Coming soon: Apocalypse Hitler, Frequency, Eternal Sunshine of the Spotless Mind and more..